<svg width="20" height="20" viewBox="0 0 20 20" fill="none" xmlns="http://www.w3.org/2000/svg">
<path d="M9.9731 8.21576C8.98955 8.21576 8.18866 9.0162 8.18866 9.99976C8.18866 10.9838 8.98955 11.7844 9.9731 11.7844C10.9571 11.7844 11.7573 10.9838 11.7573 9.99976C11.7573 9.01643 10.9569 8.21576 9.9731 8.21576Z" fill="#BFC4CE"/>
<path d="M9.97311 0C4.46533 0 0 4.46533 0 9.97311C0 15.4809 4.46533 19.9462 9.97311 19.9462C15.4809 19.9462 19.9462 15.4809 19.9462 9.97311C19.9462 4.46533 15.4809 0 9.97311 0Z" fill="#BFC4CE"/>
<path fill-rule="evenodd" clip-rule="evenodd" d="M6.26562 6.53124C5.92187 6.53124 5.625 6.40624 5.375 6.15624C5.125 5.90625 5 5.60937 5 5.26562C5 4.92187 5.125 4.625 5.375 4.375C5.625 4.125 5.92187 4 6.26562 4C6.60937 4 6.90625 4.125 7.15624 4.375C7.40624 4.625 7.53124 4.92187 7.53124 5.26562C7.53124 5.60937 7.40624 5.90625 7.15624 6.15624C6.90625 6.40624 6.60937 6.53124 6.26562 6.53124ZM7.34374 14.5H5.16406V7.49218H7.34374V14.5ZM13.3203 14.5H15.5V10.6562C15.5 9.57811 15.3437 8.78124 15.0312 8.26561C14.625 7.62499 13.914 7.30468 12.8984 7.30468C12.3984 7.30468 11.9609 7.42968 11.5859 7.67968C11.2422 7.8828 10.9922 8.14062 10.8359 8.45311H10.8125V7.49218H8.72655V14.5H10.8828V11.0312C10.8828 10.4844 10.9609 10.0703 11.1172 9.78905C11.3203 9.41405 11.6719 9.22655 12.1719 9.22655C12.6719 9.22655 13.0078 9.43749 13.1797 9.85936C13.2734 10.1094 13.3203 10.5156 13.3203 11.0781V14.5Z" fill="white"/>
</svg>

