<svg id="Layer_1" data-name="Layer 1" xmlns="http://www.w3.org/2000/svg" viewBox="0 0 247.68 247.68"><defs><style>.cls-1{fill:#eef;}.cls-2{fill:#5c5cff;}</style></defs><title>usecase-user-onboarding-software-hero</title><circle class="cls-1" cx="124.15" cy="123.89" r="122.09"/><path class="cls-2" d="M152.75,119a57,57,0,0,0-6.67-2.68,30.16,30.16,0,1,0-36.11,0,57.71,57.71,0,0,0-38.45,43A13.48,13.48,0,0,0,84.7,175.61h54.62a4.44,4.44,0,1,0,0-8.87H84.7a4.49,4.49,0,0,1-3.55-1.68,4.62,4.62,0,0,1-.94-3.89,49,49,0,0,1,46.62-38.8l1.18,0,1.19,0A48.32,48.32,0,0,1,149,127.05a4.43,4.43,0,1,0,3.8-8Zm-23.66-5.55h-2.15a21.29,21.29,0,1,1,2.15,0Zm51.26,36.62h-12.2v-12.2a4.44,4.44,0,0,0-8.87,0v12.2h-12.2a4.44,4.44,0,0,0,0,8.87h12.2v12.2a4.44,4.44,0,0,0,8.87,0V159h12.2a4.44,4.44,0,1,0,0-8.87Z"/></svg>